# xmcd CD database file
#
# Track frame offsets:
#	187
#	14170
#	29242
#	48287
#	59767
#	73630
#	84885
#	99242
#	113300
#	127210
#
# Disc length: 1898 seconds
#
# Revision: 4
# Processed by: cddbd v1.4PL0 Copyright (c) Steve Scherf et al.
# Submitted via: CDex 1.50
#
DISCID=8807680a
DTITLE=Patty Loveless - Greatest Hits
DYEAR=1993
DGENRE=Country
TTITLE0=If My Heart Had Windows
TTITLE1=Blue Side Of Town
TTITLE2=Don't Toss Us Away
TTITLE3=Timber I'm Falling In Love
TTITLE4=The Lonely Side Of Love
TTITLE5=Chains
TTITLE6=On Down The Line
TTITLE7=I'm That Kind Of Girl
TTITLE8=Hurt Me Bad (In A Real Good Way)
TTITLE9=Jealous Bone
EXTD=YEAR: 1993
EXTT0=
EXTT1=
EXTT2=
EXTT3=
EXTT4=
EXTT5=
EXTT6=
EXTT7=
EXTT8=
EXTT9=
PLAYORDER=
